<svg width="164" height="31" viewBox="0 0 164 31" fill="none" xmlns="http://www.w3.org/2000/svg">
<g id="Group 6">
<path id="Star 1" d="M15.389 0.802734L18.6878 10.9552H29.3627L20.7265 17.2297L24.0252 27.3822L15.389 21.1076L6.75286 27.3822L10.0516 17.2297L1.4154 10.9552H12.0903L15.389 0.802734Z" fill="#E49217"/>
<path id="Star 2" d="M48.6928 0.802734L51.9915 10.9552H62.6664L54.0302 17.2297L57.3289 27.3822L48.6928 21.1076L40.0566 27.3822L43.3553 17.2297L34.7191 10.9552H45.394L48.6928 0.802734Z" fill="#E49217"/>
<path id="Star 3" d="M81.996 0.802734L85.2947 10.9552H95.9696L87.3334 17.2297L90.6322 27.3822L81.996 21.1076L73.3598 27.3822L76.6585 17.2297L68.0223 10.9552H78.6973L81.996 0.802734Z" fill="#E49217"/>
<path id="Star 4" d="M115.3 0.802734L118.598 10.9552H129.273L120.637 17.2297L123.936 27.3822L115.3 21.1076L106.664 27.3822L109.962 17.2297L101.326 10.9552H112.001L115.3 0.802734Z" fill="#E49217"/>
<path id="Star 5" d="M148.603 0.802734L151.902 10.9552H162.577L153.941 17.2297L157.24 27.3822L148.603 21.1076L139.967 27.3822L143.266 17.2297L134.63 10.9552H145.305L148.603 0.802734Z" fill="#D9D9D9"/>
</g>
</svg>
